<svg xmlns="http://www.w3.org/2000/svg" xmlns:xlink="http://www.w3.org/1999/xlink" id="Layer_1" x="0" y="0" version="1.1" viewBox="0 0 515.3 515.3" xml:space="preserve" style="enable-background:new 0 0 515.3 515.3"><style type="text/css">.st0{fill:#1d2028}</style><path d="M431.7,0H196.2v317.8H514V82.3C514,36.7,477.3,0,431.7,0L431.7,0z" class="st0"/><path d="M122.8,0H82.3C36.7,0,0,36.7,0,82.3v40.5h122.8V0z" class="st0"/><rect width="122.8" height="122.8" x="0" y="196.2" class="st0"/><path d="M392.5,514H433c45.6,0,82.3-36.7,82.3-82.3v-39.2H392.5V514z" class="st0"/><rect width="122.8" height="122.8" x="196.2" y="392.5" class="st0"/><path d="M0,392.5V433c0,45.6,36.7,82.3,82.3,82.3h40.5V392.5H0z" class="st0"/></svg>